# Blender 4.4.3
# www.blender.org
mtllib wip CASINHA.mtl
o Cube
v -2.501253 0.440133 2.965543
v -2.501253 3.391666 2.965543
v -2.501253 0.440133 -2.965543
v -2.501253 3.425244 -2.965543
v 2.965543 0.440133 2.965543
v 2.965543 3.205315 2.965543
v 2.965543 0.440133 -2.965543
v 2.965543 3.205315 -2.965543
v -2.501253 0.440133 -0.819553
v -2.501253 3.425244 -0.819553
v 2.965543 0.440133 -0.819553
v 2.965543 3.205315 -0.819553
v -2.501253 3.425244 -1.925462
v 2.965543 0.440133 -1.925462
v -2.501253 0.440133 -1.925462
v 2.965543 3.205315 -1.925462
v -2.501253 2.583917 2.965543
v -2.501253 2.583917 -2.965543
v 2.965543 3.029267 -2.965543
v 2.965543 3.029267 2.965543
v 2.965543 3.029267 -0.819553
v -2.501253 2.583917 -0.819553
v 2.965543 3.029267 -1.925462
v -2.501253 2.583917 -1.925462
v -2.501253 1.831738 -2.965543
v 2.965543 1.148194 -2.965543
v 2.965543 1.148194 2.965543
v 2.965543 1.148194 -0.819553
v -2.501253 1.831738 -0.819553
v 2.965543 1.148194 -1.925462
v -2.501253 1.831738 -1.925462
v -2.501253 1.767249 2.965543
v -2.679852 2.583917 -0.819553
v -2.679852 2.583917 -1.925462
v -2.679852 1.073000 -0.819553
v -2.679852 1.073000 -1.925462
v -2.501253 0.440133 1.225620
v 2.965543 3.205315 1.225620
v -2.501253 3.425244 1.225620
v 2.965543 0.440133 1.225620
v -2.501253 2.583917 1.225620
v 2.965543 3.029267 1.225620
v 2.965543 1.148194 1.225620
v -2.501253 1.831738 1.225620
v -2.501253 3.425244 -0.229747
v 2.965543 0.440133 -0.229747
v -2.501253 2.583917 -0.229747
v -2.501253 1.831738 -0.229747
v -2.501253 0.440133 -0.229747
v 2.965543 3.205315 -0.229747
v 2.965543 3.029267 -0.229747
v 2.965543 1.148194 -0.229747
v -2.501253 0.440133 0.164227
v 2.965543 3.205315 0.164227
v 2.965543 3.029267 0.164227
v 2.965543 1.148194 0.164227
v -2.501253 3.425244 0.164227
v 2.965543 0.440133 0.164227
v -2.501253 2.583917 0.164227
v -2.501253 1.073000 0.164227
v -3.114873 2.583917 -0.229747
v -3.114873 1.073000 -0.229747
v -3.114873 0.440133 -0.229747
v -3.114873 0.440133 0.164227
v -3.114873 2.583917 0.164227
v -3.114873 1.073000 0.164227
v -2.855717 0.440133 1.225620
v -2.855717 2.583917 1.225620
v -2.855717 1.073000 1.225620
v -2.855717 0.440133 0.164227
v -2.855717 2.583917 0.164227
v -2.855717 1.073000 0.164227
v -2.501253 0.440133 2.128203
v 2.965543 3.205315 2.128203
v 2.965543 3.029267 2.128203
v 2.965543 1.148194 2.128203
v -2.501253 3.425244 2.128202
v 2.965543 0.440133 2.128202
v -2.501253 2.583917 2.128202
v -2.501253 1.767249 2.128202
v -2.501253 3.425244 1.585693
v 2.965543 0.440133 1.585693
v -2.501253 2.583917 1.585693
v -2.501253 1.831738 1.585693
v -2.501253 0.440133 1.585693
v 2.965543 3.205315 1.585693
v 2.965543 3.029267 1.585693
v 2.965543 1.148194 1.585693
v -2.501253 2.234929 2.965543
v -2.501253 2.234928 -2.965543
v 2.965543 2.448176 -2.965543
v 2.965543 2.448176 2.965543
v 2.965543 2.448176 -0.819553
v -2.501253 2.234928 -0.819553
v 2.965543 2.448176 -1.925462
v -2.501253 2.234928 -1.925462
v -2.679852 2.234928 -0.819553
v -2.679852 2.234928 -1.925462
v 2.965543 2.448176 1.225620
v -2.501253 2.234929 1.225620
v 2.965543 2.448176 -0.229747
v -2.501253 2.234929 -0.229747
v -2.501253 2.234929 0.164227
v 2.965543 2.448176 0.164227
v -3.114873 2.234929 -0.229747
v -3.114873 2.234929 0.164227
v -2.855717 2.234929 1.225620
v -2.855717 2.234929 0.164227
v -2.501253 2.234929 2.128202
v 2.965543 2.448176 2.128203
v 2.965543 2.448176 1.585693
v -2.501253 2.234929 1.585693
v -3.541387 0.440133 2.128203
v -3.541387 1.073000 2.128202
v -3.541387 1.073000 1.585693
v -3.541387 0.440133 1.585693
v -3.541387 2.234929 2.128202
v -3.541387 2.234929 1.585693
v 2.483807 0.440133 -2.965543
v 2.483807 3.245691 -2.965543
v 2.483807 3.245691 2.965543
v 2.483807 2.816185 -2.965543
v 2.483807 1.141568 -2.965543
v 2.483807 2.429385 -2.965543
v 1.273194 0.440133 -2.965543
v 1.273194 3.293091 2.965543
v 1.273194 3.293091 -2.965543
v 1.273194 1.124916 -2.965543
v 0.556049 3.353197 2.965543
v 0.556049 3.353197 -2.965543
v 0.648745 1.115052 -2.965543
v -0.012957 0.440133 -2.965543
v -0.012957 3.400887 2.965543
v -0.012957 3.400887 -2.965543
v -0.712267 0.440133 -2.965543
v -0.712267 3.459499 2.965543
v -0.712267 3.459499 -2.965543
v -0.712267 2.667271 -2.965543
v -0.712267 1.097607 -2.965543
v -0.712267 2.304713 -2.965543
v -1.285685 0.440133 -2.965543
v -1.285685 3.473981 2.965543
v -1.285684 3.507558 -2.965543
v -1.285684 2.640553 -2.965543
v 1.758971 1.131598 -2.965543
v 1.758971 0.440133 2.965543
v 1.758971 3.274071 -2.965543
v 1.758971 0.440133 2.128202
v 1.758971 3.274071 2.965543
v 1.758971 0.440133 -2.965543
v -2.501253 2.095881 -2.965543
v 2.965543 2.292608 -2.965543
v 2.965543 2.292608 2.965543
v 2.965543 2.292608 -0.819553
v -2.501253 2.095881 -0.819553
v 2.965543 2.292608 -1.925462
v -2.501253 2.095881 -1.925462
v -2.679852 2.095881 -0.819553
v -2.679852 2.095881 -1.925462
v 2.965543 2.292608 1.225620
v -2.501253 2.095881 1.225620
v 2.965543 2.292608 -0.229747
v -2.501253 2.095881 -0.229747
v -2.501253 2.095881 0.164227
v 2.965543 2.292608 0.164227
v -3.114873 2.095881 -0.229747
v -3.114873 2.095881 0.164227
v -2.855717 2.095881 1.225620
v -2.855717 2.095881 0.164227
v -2.501253 2.095881 2.128202
v 2.965543 2.292608 2.128203
v 2.965543 2.292608 1.585693
v -2.501253 2.095881 1.585693
v -2.501253 2.095881 2.965543
v -3.541387 2.095881 2.128202
v -3.541387 2.095881 1.585693
v 2.483807 2.275273 -2.965543
v 1.273194 2.214027 -2.965543
v 0.648745 2.216024 -2.965543
v -0.712267 2.160259 -2.965543
v 1.758971 2.212514 -2.965543
v 0.648745 0.440133 -3.361821
v 0.648745 1.115052 -3.361821
v 1.758971 1.131598 -3.361821
v 1.758971 0.440133 -3.361821
v 1.273194 2.214027 -3.361821
v 0.648745 2.216024 -3.361821
v 1.758971 2.212514 -3.361821
v -1.843758 0.440133 -2.965543
v -1.843758 3.436190 2.965543
v -1.843757 3.469767 -2.965543
v -1.843757 2.614551 -2.965543
v -1.843757 1.082044 -2.965543
v -1.843757 2.260576 -2.965543
v -1.843757 2.119542 -2.965543
v -0.712267 0.440133 -3.232712
v -0.712267 2.667271 -3.232712
v -0.712267 1.097607 -3.232712
v -0.712267 2.304713 -3.232712
v -1.285685 0.440133 -3.232712
v -1.285684 2.640553 -3.232712
v -1.285684 1.089720 -3.232712
v -1.285684 2.282345 -3.232712
v -0.712267 2.160259 -3.232712
v -1.285684 2.139625 -3.232712
v -1.843758 0.440133 -3.232712
v -1.843757 2.614551 -3.232712
v -1.843757 1.082044 -3.232712
v -1.843757 2.260576 -3.232712
v -1.843757 2.119542 -3.232712
v -2.368078 0.440133 -2.965543
v -2.368078 3.400684 2.965543
v -2.368078 0.440133 2.128203
v -2.368078 0.440133 1.585693
v -2.368078 3.434262 -2.965543
v -2.368078 0.440133 2.965543
v 2.965543 0.437016 3.121354
v 2.965543 1.145078 3.121354
v -2.501253 3.388550 3.121354
v -2.501253 2.580801 3.121354
v 1.758971 3.274071 -3.117596
v 2.483807 3.245691 -3.117596
v 1.758971 2.782412 -3.117596
v 2.483807 2.816185 -3.117596
v 1.758971 1.131598 -3.117596
v 2.483807 1.141568 -3.117596
v 1.758971 2.401111 -3.117596
v 2.483807 2.429385 -3.117596
v 2.483807 2.275273 -3.117596
v 2.483807 0.440133 -3.117596
v 0.556049 3.353197 -3.117596
v 1.273194 3.293091 -3.117596
v 0.556049 2.726365 -3.117596
v 1.273194 2.759779 -3.117596
v 0.556049 2.354187 -3.117596
v 1.273194 2.382162 -3.117596
v -0.012957 3.400887 -3.117596
v -0.012957 2.699853 -3.117596
v -0.012957 1.107226 -3.117596
v 0.648745 1.115052 -3.117596
v -0.012957 2.331991 -3.117596
v 0.648745 2.216024 -3.117596
v 0.648745 0.440133 -3.117596
v -0.012957 0.440133 -3.117596
v -0.712267 3.459499 -3.117596
v -0.712267 2.667271 -3.117596
v -0.712267 1.097607 -3.117596
v -0.712267 2.304713 -3.117596
v -0.012957 2.185425 -3.117596
v -0.712267 0.440133 -3.117596
v -1.285684 3.507558 -3.117596
v -1.285684 2.640553 -3.117596
v -0.712267 2.160259 -3.117596
v -1.843757 3.469767 -3.117596
v -1.843757 2.614551 -3.117596
v 1.758971 0.440133 -3.117596
v 1.758971 2.212514 -3.117596
v 1.273194 2.214027 -3.117596
v -2.368078 3.434262 -3.117596
v -2.368078 2.590122 -3.117596
v -2.368078 1.074832 -3.117596
v -1.843757 1.082044 -3.117596
v -2.368078 2.240123 -3.117596
v -1.843757 2.260576 -3.117596
v -2.368078 2.100674 -3.117596
v -1.843757 2.119542 -3.117596
v -1.843758 0.440133 -3.117596
v -2.368078 0.440133 -3.117596
v 2.596784 2.275273 -2.965543
v 2.596784 1.141568 -2.965543
v 2.596784 0.440133 -2.965543
v 2.596784 2.816185 -2.965543
v 2.596784 2.429385 -2.965543
v 2.596784 3.245691 -2.965543
v 2.596784 2.275273 -3.117596
v 2.596784 2.429385 -3.117596
v 2.596784 1.141568 -3.117596
v 2.596784 0.440133 -3.117596
v 2.596784 3.245691 -3.117596
v 2.596784 2.816185 -3.117596
v -2.589587 0.440133 2.128203
v -2.589587 0.440133 2.965543
v -2.554183 1.073000 -2.965543
v -2.554183 0.440133 -2.965543
v -2.554183 0.440133 -1.925462
v -2.554183 0.440133 -0.819553
v -2.554183 1.073000 -0.819553
v -2.554183 1.073000 -1.925462
v -2.589587 1.073000 2.965543
v -2.554183 1.073000 -0.229747
v -2.589587 1.073000 1.585693
v -2.589587 1.073000 1.225620
v -2.589587 0.440133 1.225620
v -2.710248 0.440133 0.164227
v -3.323868 0.440133 0.164227
v -2.554183 0.440133 -0.229747
v -2.710248 1.073000 0.164227
v -2.917198 0.440133 0.164227
v -2.917198 0.440133 1.225620
v -2.917198 1.073000 1.225620
v -2.917198 1.073000 0.164227
v -2.589587 1.073000 2.128202
v -2.589587 0.440133 1.585693
v 2.483807 0.437016 3.121354
v -2.368078 3.397568 3.121354
v -2.501253 2.231812 3.121354
v 2.965543 3.202199 3.121354
v 2.965543 3.026150 3.121354
v -2.368078 2.587006 3.121354
v 2.965543 2.289492 3.121354
v -2.501253 0.437016 3.121354
v -2.501253 1.069884 3.121354
v -2.368078 1.071716 3.121354
v -2.501253 2.092765 3.121354
v 2.965543 2.445060 3.121354
v -2.368078 2.237007 3.121354
v 1.758971 0.437016 3.121354
v 2.483807 3.242575 3.121354
v 2.483807 2.813068 3.121354
v 2.483807 1.138452 3.121354
v 2.483807 2.426269 3.121354
v 2.483807 2.272157 3.121354
v 1.758971 3.270955 3.121354
v 1.273194 3.289975 3.121354
v 1.758971 2.779296 3.121354
v 1.273194 2.756663 3.121354
v 1.758971 1.128482 3.121354
v 1.273194 1.121800 3.121354
v 1.758971 0.437016 2.284013
v 1.758971 2.397995 3.121354
v 1.273194 2.379045 3.121354
v 0.556049 0.437016 3.121354
v 1.273194 0.437016 3.121354
v 1.273194 2.228592 3.121354
v 0.556049 3.350081 3.121354
v 0.556049 2.723249 3.121354
v 0.556049 1.111936 3.121354
v 0.556049 2.351071 3.121354
v -0.012957 0.437016 3.121354
v 0.556049 2.202785 3.121354
v -0.012957 3.397771 3.121354
v -0.012957 2.696738 3.121354
v -0.012957 1.104110 3.121354
v -0.012957 2.328876 3.121354
v -0.712267 0.437016 3.121354
v -0.012957 2.182309 3.121354
v -0.712267 3.456383 3.121354
v -0.712267 2.664155 3.121354
v -0.712267 1.094491 3.121354
v -0.712267 2.301597 3.121354
v -1.285684 0.437016 3.121354
v -0.712267 2.157143 3.121354
v -1.285685 3.470865 3.121354
v -1.285685 2.637438 3.121354
v -1.285685 1.086604 3.121354
v -1.285685 2.279229 3.121354
v -1.843757 0.437016 3.121354
v -1.285685 2.136508 3.121354
v 1.758971 2.246073 3.121354
v -2.368078 2.097558 3.121354
v -1.843758 3.433074 3.121354
v -1.843758 2.611436 3.121354
v -1.843758 1.078928 3.121354
v -1.843758 2.257460 3.121354
v -2.368078 0.437016 3.121354
v -1.843758 2.116426 3.121354
v 2.260674 3.254427 -2.965543
v 2.260674 0.440133 -2.965543
v 2.260674 3.254427 2.965543
v 2.260674 3.254427 -3.117596
v 2.260674 2.805788 -3.117596
v 2.260674 1.138499 -3.117596
v 2.260674 2.420681 -3.117596
v 2.260674 0.440133 -3.117596
v 2.260674 2.255953 -3.117596
v 2.260674 0.437016 3.121354
v 2.260674 2.417565 3.121354
v 2.260674 1.135383 3.121354
v 2.260674 2.802672 3.121354
v 2.260674 3.251311 3.121354
v 2.260674 2.264127 3.121354
v -1.859735 3.468685 -2.965543
v -1.859735 0.440133 -2.965543
v -1.859735 3.435108 2.965543
v -1.859735 3.468685 -3.117596
v -1.859735 2.613807 -3.117596
v -1.859735 1.081824 -3.117596
v -1.859735 2.259953 -3.117596
v -1.859735 2.118967 -3.117596
v -1.859735 0.440133 -3.117596
v -1.859735 0.437016 3.121354
v -1.859735 3.431992 3.121354
v -1.859735 2.610691 3.121354
v -1.859735 1.078708 3.121354
v -1.859735 2.256837 3.121354
v -1.859735 2.115851 3.121354
v 4.151987 0.426495 2.128178
v 3.888169 0.429528 2.128183
v -2.501253 0.440133 2.534600
v 2.965543 3.029267 2.534600
v 2.965543 1.148194 2.534600
v -2.501253 3.408947 2.534599
v 2.965543 0.440133 2.534599
v -2.501253 2.583917 2.534599
v -2.501253 1.767249 2.534599
v -2.501253 2.234929 2.534599
v 2.965543 2.448176 2.534600
v 1.758971 0.440133 2.534599
v 2.965543 2.292608 2.534600
v -2.501253 2.095881 2.534599
v -2.368078 0.440133 2.534600
v -2.589587 0.440133 2.534600
v -2.589587 1.073000 2.534599
v 1.758971 0.437016 2.690410
v 4.151987 0.426495 2.534575
v 3.888169 0.429528 2.534580
v -2.501253 3.425244 -2.187284
v 2.965543 0.440133 -2.187284
v -2.501253 0.440133 -2.187284
v 2.965543 3.029267 -2.187284
v -2.501253 2.583917 -2.187284
v -2.501253 1.831738 -2.187284
v 2.965543 1.148194 -2.187284
v -2.501253 2.234928 -2.187284
v 2.965543 2.448176 -2.187284
v 2.965543 2.292608 -2.187284
v -2.501253 2.095881 -2.187284
v -2.554183 0.440133 -2.187284
v -2.554183 1.073000 -2.187284
v 4.151987 0.426495 -2.187309
v 3.888169 0.429528 -2.187304
v -2.501253 3.425244 -2.556858
v 2.965543 0.440133 -2.556858
v -2.501253 2.583917 -2.556858
v -2.501253 1.831738 -2.556858
v -2.501253 2.234928 -2.556858
v -2.501253 2.095881 -2.556858
v -2.554183 1.073000 -2.556858
v 4.151987 0.426495 -2.556883
v 3.888169 0.429528 -2.556878
v -2.501253 0.440133 -2.556858
v 2.965543 3.029267 -2.556858
v 2.965543 1.148194 -2.556858
v 2.965543 2.448176 -2.556858
v 2.965543 2.292608 -2.556858
v -2.554183 0.440133 -2.556858
v 3.915822 2.835312 2.128183
v 4.179640 2.832280 2.128178
v 4.179640 2.832280 2.534575
v 3.915822 2.835312 2.534580
v 3.915822 2.835312 -2.187304
v 4.179640 2.832280 -2.187309
v 4.179640 2.832280 -2.556883
v 3.915822 2.835312 -2.556878
v 2.960130 3.064874 2.128183
v 2.960130 3.064874 -2.187304
v 3.915822 2.835312 3.132699
v 2.960130 3.064874 3.132699
v 3.915822 2.835312 -2.967304
v 2.960130 3.064874 -2.967304
v 4.749708 2.711098 2.128178
v 4.749708 2.711098 2.534575
v 4.749708 2.711098 -2.187309
v 4.749708 2.711098 -2.556883
v 4.179640 2.832280 3.112511
v 4.749708 2.711098 3.112511
v 4.179640 2.832280 -2.907852
v 4.749708 2.711098 -2.907852
v 3.915822 2.835312 2.528486
v 2.960130 3.064874 2.528486
v 3.915822 2.835312 -2.577304
v 2.960130 3.064874 -2.577304
v -4.183532 0.102182 4.035445
v -4.183532 0.445239 4.035445
v -4.183532 0.102182 -4.555517
v -4.183532 0.445239 -4.555517
v 4.682351 0.102182 4.035445
v 4.682351 0.445239 4.035445
v 4.682351 0.102182 -4.555517
v 4.682351 0.445239 -4.555517
v -1.919354 0.102182 -4.555517
v -1.860756 0.102182 4.035445
v -1.860755 0.445239 4.035445
v 2.258381 0.102182 4.035445
v 2.258381 0.102182 -4.555517
v 2.258381 0.445239 4.035445
v 2.258381 0.102182 -5.612739
v -1.919354 0.102182 -5.612739
v 2.418872 0.445239 -4.555517
v 2.418872 0.102182 4.035445
v 2.418872 0.102182 -4.555517
v 2.418872 0.445239 4.035445
v -2.093090 0.102182 -4.555517
v -2.038988 0.445239 4.035445
v -2.093091 0.445239 -4.555517
v -2.038989 0.102182 4.035445
v -1.918193 0.445239 -4.385376
v -1.917742 0.394109 -4.717794
v -1.919354 0.275098 -4.555517
v -2.089495 0.445239 -4.555517
v -1.918515 0.441347 -4.462839
v -1.918542 0.430264 -4.553214
v -1.918271 0.413676 -4.642743
v 2.256081 0.394109 -4.717794
v 2.258381 0.445239 -4.385376
v 2.418822 0.445239 -4.555517
v 2.258381 0.275098 -4.555517
v 2.256961 0.413676 -4.642743
v 2.257707 0.430264 -4.553214
v 2.258206 0.441347 -4.462839
v -1.914366 0.287004 -5.057722
v -1.914510 0.238501 -5.206778
v -1.914438 0.262753 -5.132250
v 2.251470 0.238501 -5.206778
v 2.251265 0.287004 -5.057722
v 2.250886 0.263042 -5.132344
vn -1.0000 -0.0000 -0.0000
vn -0.0000 -0.0000 -1.0000
vn 1.0000 -0.0000 -0.0000
vn -0.0000 1.0000 -0.0000
vn -0.0000 -0.0000 1.0000
vn -0.9920 0.1262 -0.0000
vn 0.9734 -0.2291 -0.0000
vn -0.0000 -1.0000 -0.0000
vn -0.9976 0.0696 -0.0000
vn 0.0465 -0.9989 -0.0000
vn 0.0835 0.9965 -0.0000
vn -0.0465 0.9989 -0.0000
vn 0.0252 0.9995 0.0200
vn 0.0391 0.9992 -0.0000
vn -0.0675 0.9975 0.0199
vn 0.0391 0.9990 0.0200
vn 0.0835 0.9963 0.0199
vn -0.0000 -0.9998 -0.0200
vn 0.0032 1.0000 -0.0000
vn 0.0031 1.0000 -0.0000
vn -0.0031 -1.0000 -0.0000
vn -0.0676 0.9977 -0.0000
vn -0.7523 -0.0000 -0.6589
vn -0.0032 -1.0000 -0.0000
vn -0.9933 0.1156 -0.0000
vn -0.0676 0.9975 0.0199
vn -0.9999 0.0115 -0.0000
vn -0.2336 -0.9723 -0.0000
vn -0.0115 -0.9999 -0.0000
vn 0.9999 -0.0115 -0.0000
vn -0.2079 -0.9781 -0.0000
vn 0.9997 0.0251 -0.0070
vn -0.0000 0.9538 -0.3005
vn -0.0000 0.9480 -0.3183
vn -0.4949 0.6135 -0.6153
vn 0.5164 0.6032 -0.6078
vn -0.0000 0.9987 -0.0502
vn -0.0000 0.9926 -0.1217
vn -0.0000 0.9833 -0.1822
vn -0.0000 0.9677 -0.2523
vn -0.0000 0.9515 -0.3076
vn -0.0000 0.9503 -0.3113
vn -0.9998 0.0174 -0.0048
vt 0.544105 0.232896
vt 0.625000 0.232896
vt 0.625000 0.250000
vt 0.544105 0.250000
vt 0.544105 0.477970
vt 0.625000 0.477970
vt 0.625000 0.500000
vt 0.544105 0.500000
vt 0.544105 0.714564
vt 0.625000 0.714564
vt 0.625000 0.750000
vt 0.544105 0.750000
vt 0.544105 0.731762
vt 0.544105 0.543530
vt 0.625000 0.543530
vt 0.625000 0.589815
vt 0.544105 0.589815
vt 0.544105 0.135225
vt 0.625000 0.135225
vt 0.625000 0.160185
vt 0.544105 0.160185
vt 0.544105 0.532572
vt 0.544105 0.517104
vt 0.625000 0.206470
vt 0.544105 0.206470
vt 0.516576 0.532572
vt 0.516576 0.543530
vt 0.516576 0.135225
vt 0.516576 0.160185
vt 0.516576 0.589815
vt 0.516576 0.731762
vt 0.516576 0.750000
vt 0.516576 0.477970
vt 0.516576 0.500000
vt 0.516576 0.232896
vt 0.516576 0.250000
vt 0.375000 0.118552
vt 0.424922 0.118552
vt 0.375000 0.477970
vt 0.424922 0.477970
vt 0.424922 0.500000
vt 0.375000 0.500000
vt 0.375000 0.731763
vt 0.424922 0.731763
vt 0.424922 0.750000
vt 0.375000 0.750000
vt 0.375000 0.543530
vt 0.424922 0.543530
vt 0.424922 0.589815
vt 0.375000 0.589815
vt 0.424922 0.018238
vt 0.424922 0.035436
vt 0.424922 0.018238
vt 0.375000 0.532572
vt 0.424922 0.532572
vt 0.424922 0.073634
vt 0.516576 0.206470
vt 0.505608 0.206470
vt 0.424922 0.206470
vt 0.505608 0.206470
vt 0.424922 0.160185
vt 0.125000 0.631448
vt 0.375000 0.631448
vt 0.424922 0.631448
vt 0.424922 0.676367
vt 0.375000 0.676367
vt 0.516576 0.631448
vt 0.544105 0.631448
vt 0.544105 0.676366
vt 0.516576 0.676366
vt 0.516576 0.058395
vt 0.544105 0.058395
vt 0.544105 0.073634
vt 0.516576 0.073634
vt 0.625000 0.058395
vt 0.625000 0.073634
vt 0.625000 0.631448
vt 0.625000 0.676367
vt 0.625000 0.614775
vt 0.544105 0.614775
vt 0.516576 0.614775
vt 0.424922 0.614775
vt 0.375000 0.614775
vt 0.516576 0.118552
vt 0.544105 0.118552
vt 0.516576 0.118552
vt 0.125000 0.614775
vt 0.625000 0.118552
vt 0.424922 0.135225
vt 0.505608 0.118552
vt 0.505608 0.118552
vt 0.375000 0.135225
vt 0.505608 0.135225
vt 0.505608 0.135225
vt 0.125000 0.543530
vt 0.125000 0.589815
vt 0.125000 0.676367
vt 0.125000 0.691605
vt 0.544105 0.018238
vt 0.625000 0.018238
vt 0.625000 0.035436
vt 0.544105 0.035436
vt 0.516576 0.018238
vt 0.516576 0.035436
vt 0.375000 0.691605
vt 0.424922 0.691605
vt 0.424922 0.714564
vt 0.375000 0.714564
vt 0.516576 0.691605
vt 0.544105 0.691605
vt 0.516576 0.714564
vt 0.625000 0.691605
vt 0.375000 0.035436
vt 0.505608 0.676366
vt 0.505608 0.691605
vt 0.505608 0.714564
vt 0.505608 0.018238
vt 0.505608 0.035436
vt 0.505608 0.073634
vt 0.505608 0.073634
vt 0.505608 0.118552
vt 0.505608 0.614775
vt 0.505608 0.631448
vt 0.505608 0.589815
vt 0.505608 0.058395
vt 0.505608 0.160185
vt 0.505608 0.160185
vt 0.505608 0.232896
vt 0.505608 0.250000
vt 0.505608 0.477970
vt 0.505608 0.500000
vt 0.505608 0.731762
vt 0.505608 0.750000
vt 0.505608 0.543530
vt 0.505608 0.532572
vt 0.424922 0.058395
vt 0.375000 0.058395
vt 0.125000 0.714564
vt 0.154337 0.500000
vt 0.131090 0.500000
vt 0.154337 0.500000
vt 0.544105 0.331811
vt 0.544105 0.305589
vt 0.505608 0.280068
vt 0.424922 0.280068
vt 0.238791 0.500000
vt 0.206811 0.500000
vt 0.342766 0.500000
vt 0.319823 0.500000
vt 0.000000 0.000000
vt 0.505608 0.331812
vt 0.516576 0.331811
vt 0.516576 0.772030
vt 0.505608 0.772030
vt 0.505608 0.993910
vt 0.516576 0.993910
vt 0.516576 1.000000
vt 0.505608 1.000000
vt 0.424922 0.331811
vt 0.544105 0.280068
vt 0.375000 0.331811
vt 0.516576 0.280068
vt 0.180589 0.500000
vt 0.544105 0.000000
vt 0.516576 0.000000
vt 0.625000 0.000000
vt 0.375000 0.422608
vt 0.424922 0.422608
vt 0.424922 0.444823
vt 0.375000 0.444823
vt 0.375000 0.280068
vt 0.125000 0.750000
vt 0.131090 0.750000
vt 0.505608 0.000000
vt 0.424922 0.000000
vt 0.505608 0.422608
vt 0.505608 0.444823
vt 0.155068 0.500000
vt 0.424922 1.000000
vt 0.375000 1.000000
vt 0.375000 0.993910
vt 0.424922 0.993910
vt 0.424922 0.389812
vt 0.505608 0.389812
vt 0.319823 0.731763
vt 0.319823 0.750000
vt 0.319823 0.731763
vt 0.424922 0.232896
vt 0.424922 0.250000
vt 0.375000 0.389812
vt 0.544105 0.993910
vt 0.544105 1.000000
vt 0.505608 0.305589
vt 0.516576 0.305589
vt 0.375000 0.305589
vt 0.424922 0.305589
vt 0.625000 0.993910
vt 0.625000 1.000000
vt 0.125000 0.731763
vt 0.131090 0.731763
vt 0.424922 0.256090
vt 0.375000 0.256090
vt 0.375000 0.250000
vt 0.505608 0.256090
vt 0.131090 0.691605
vt 0.131090 0.714564
vt 0.516576 0.256090
vt 0.544105 0.256090
vt 0.505608 0.467766
vt 0.516577 0.467766
vt 0.375000 0.467766
vt 0.424922 0.467766
vt 0.544105 0.467766
vt 0.625000 0.467766
vt 0.544105 0.389812
vt 0.625000 0.389812
vt 0.625000 0.422608
vt 0.544105 0.422608
vt 0.516576 0.389812
vt 0.516576 0.422608
vt 0.505608 0.363791
vt 0.516577 0.363791
vt 0.375000 0.363791
vt 0.424922 0.363791
vt 0.544105 0.363791
vt 0.625000 0.363791
vt 0.625000 0.331811
vt 0.625000 0.305589
vt 0.625000 0.280068
vt 0.544105 0.444823
vt 0.516576 0.444823
vt 0.625000 0.444823
vt 0.424922 0.279337
vt 0.505608 0.279337
vt 0.516576 0.279337
vt 0.375000 0.279337
vt 0.544105 0.279337
vt 0.625000 0.279337
vt 0.625000 0.256090
vt 0.352970 0.500000
vt 0.375000 0.232896
vt 0.375000 0.160185
vt 0.375000 0.206470
vt 0.375000 0.073634
vt 0.375000 0.018238
vt 0.125000 0.532572
vt 0.424922 0.772030
vt 0.375000 0.772030
vt 0.544105 0.772030
vt 0.625000 0.772030
vt 0.505608 0.805177
vt 0.516576 0.805177
vt 0.516576 0.827392
vt 0.505608 0.827392
vt 0.375000 0.805177
vt 0.424922 0.805177
vt 0.424922 0.827392
vt 0.375000 0.827392
vt 0.544105 0.805177
vt 0.544105 0.827392
vt 0.625000 0.805177
vt 0.625000 0.827392
vt 0.516576 0.860188
vt 0.505608 0.860188
vt 0.424922 0.860188
vt 0.375000 0.860188
vt 0.544105 0.860188
vt 0.625000 0.860188
vt 0.516576 0.886209
vt 0.505608 0.886209
vt 0.424922 0.886209
vt 0.375000 0.886209
vt 0.544105 0.886209
vt 0.625000 0.886209
vt 0.516576 0.918189
vt 0.505608 0.918189
vt 0.424922 0.918189
vt 0.375000 0.918189
vt 0.544105 0.918189
vt 0.625000 0.918189
vt 0.516576 0.944411
vt 0.505608 0.944411
vt 0.424922 0.944411
vt 0.375000 0.944411
vt 0.544105 0.944411
vt 0.625000 0.944411
vt 0.516576 0.782234
vt 0.544105 0.782234
vt 0.505608 0.782234
vt 0.375000 0.782234
vt 0.424922 0.782234
vt 0.625000 0.782234
vt 0.505608 0.969932
vt 0.424922 0.969932
vt 0.516576 0.969932
vt 0.375000 0.969932
vt 0.544105 0.969932
vt 0.625000 0.969932
vt 0.424922 0.970663
vt 0.505608 0.970663
vt 0.516576 0.970663
vt 0.375000 0.970663
vt 0.544105 0.970663
vt 0.625000 0.970663
vt 0.375000 0.714564
vt 0.375000 0.714564
vt 0.375000 0.000000
vt 0.319823 0.714564
vt 0.375000 0.517105
vt 0.375000 0.532572
vt 0.424922 0.217428
vt 0.125000 0.517104
vt 0.375000 0.217428
vt 0.505608 0.217428
vt 0.424922 0.517104
vt 0.505608 0.517104
vt 0.516576 0.517104
vt 0.516576 0.217428
vt 0.375000 0.517105
vt 0.544105 0.217428
vt 0.625000 0.217428
vt 0.125000 0.500000
vt 0.375000 0.731763
vt 0.375000 0.517104
vt 0.375000 0.731762
vt 0.375000 0.436174
vt 0.625000 0.436174
vt 0.375000 0.939528
vt 0.625000 0.939528
vt 0.311174 0.500000
vt 0.311174 0.750000
vt 0.814528 0.500000
vt 0.875000 0.500000
vt 0.875000 0.750000
vt 0.814528 0.750000
vt 0.375000 0.310472
vt 0.625000 0.310472
vt 0.625000 0.310576
vt 0.501011 0.315498
vt 0.375000 0.315498
vt 0.185472 0.500000
vt 0.190498 0.500000
vt 0.190498 0.750000
vt 0.185472 0.750000
vt 0.375000 0.818351
vt 0.625000 0.818351
vt 0.625000 0.934502
vt 0.375000 0.934502
vt 0.625000 0.431649
vt 0.501011 0.431649
vt 0.375000 0.431649
vt 0.586323 0.431649
vt 0.624206 0.431649
vt 0.625000 0.431649
vt 0.375000 0.813825
vt 0.625000 0.813826
vt 0.306649 0.500000
vt 0.306649 0.750000
vt 0.688826 0.500000
vt 0.688827 0.500000
vt 0.693351 0.504951
vt 0.693351 0.750000
vt 0.688825 0.750000
vt 0.809502 0.500000
vt 0.693351 0.500000
vt 0.586323 0.315498
vt 0.586323 0.431649
vt 0.625000 0.436173
vt 0.809502 0.504951
vt 0.809502 0.750000
vt 0.625000 0.315498
vt 0.622164 0.315522
vt 0.614087 0.315498
vt 0.601998 0.315498
vt 0.587739 0.315498
vt 0.621597 0.431649
vt 0.614087 0.431649
vt 0.622164 0.431649
vt 0.693356 0.502697
vt 0.809497 0.502697
vt 0.693370 0.500000
vt 0.809480 0.500000
vt 0.693356 0.500000
vt 0.809497 0.500000
vt 0.814424 0.500000
vt 0.623672 0.315498
vt 0.586323 0.315498
s 0
f 434/1/1 432/2/1 4/3/1 18/4/1
f 122/5/2 120/6/2 8/7/2 19/8/2
f 75/9/3 74/10/3 6/11/3 20/12/3 400/13/3
f 23/14/3 16/15/3 12/16/3 21/17/3
f 47/18/1 45/19/1 10/20/1 22/21/1
f 19/8/3 8/7/3 16/15/3 23/14/3 420/22/3 442/23/3
f 22/21/1 10/20/1 13/24/1 24/25/1
f 22/21/4 24/25/4 34/25/4 33/21/4
f 425/26/3 420/22/3 23/14/3 95/27/3
f 102/28/1 47/18/1 22/21/1 94/29/1
f 95/27/3 23/14/3 21/17/3 93/30/3
f 407/31/3 400/13/3 20/12/3 92/32/3
f 124/33/2 122/5/2 19/8/2 91/34/2
f 436/35/1 434/1/1 18/4/1 90/36/1
f 53/37/5 60/38/5 297/38/5 294/37/5
f 119/39/2 123/40/2 26/41/2 7/42/2
f 403/43/3 401/44/3 27/45/3 5/46/3
f 14/47/3 30/48/3 28/49/3 11/50/3
f 405/51/6 80/52/6 302/52/6 413/53/6
f 418/54/3 423/55/3 30/48/3 14/47/3
f 69/56/4 72/38/4 301/38/4 300/56/4
f 97/29/1 33/21/1 34/25/1 98/57/1
f 157/58/2 31/59/2 36/59/2 159/60/2
f 94/29/5 22/21/5 33/21/5 97/29/5
f 31/59/7 29/61/7 35/61/7 36/59/7
f 64/62/4 53/62/4 294/62/4 295/62/4
f 58/63/3 56/64/3 43/65/3 40/66/3
f 104/67/3 55/68/3 42/69/3 99/70/3
f 112/71/1 83/72/1 41/73/1 100/74/1
f 83/72/1 81/75/1 39/76/1 41/73/1
f 55/68/3 54/77/3 38/78/3 42/69/3
f 21/17/3 12/16/3 50/79/3 51/80/3
f 93/30/3 21/17/3 51/80/3 101/81/3
f 11/50/3 28/49/3 52/82/3 46/83/3
f 103/84/5 59/85/5 65/85/5 106/86/5
f 49/87/8 53/62/8 64/62/8 63/87/8
f 59/85/1 57/88/1 45/19/1 47/18/1
f 41/73/1 39/76/1 57/88/1 59/85/1
f 48/89/9 29/61/9 287/61/9 290/89/9
f 164/90/2 60/38/2 72/38/2 169/91/2
f 51/80/3 50/79/3 54/77/3 55/68/3
f 101/81/3 51/80/3 55/68/3 104/67/3
f 46/83/3 52/82/3 56/64/3 58/63/3
f 64/37/1 66/38/1 62/89/1 63/92/1
f 106/86/1 65/85/1 61/18/1 105/28/1
f 163/93/2 48/89/2 62/89/2 166/94/2
f 15/95/8 9/96/8 286/96/8 285/95/8
f 59/85/4 47/18/4 61/18/4 65/85/4
f 48/89/2 49/92/2 63/92/2 62/89/2
f 107/74/1 68/73/1 71/85/1 108/86/1
f 37/97/8 85/98/8 303/98/8 293/97/8
f 53/62/8 37/97/8 67/97/8 70/62/8
f 100/74/5 41/73/5 68/73/5 107/74/5
f 60/38/2 53/37/2 70/37/2 72/38/2
f 41/73/4 59/85/4 71/85/4 68/73/4
f 404/99/1 402/100/1 77/101/1 79/102/1
f 406/103/1 404/99/1 79/102/1 109/104/1
f 67/97/4 37/97/4 293/97/4 299/97/4
f 82/105/3 88/106/3 76/107/3 78/108/3
f 111/109/3 87/110/3 75/9/3 110/111/3
f 87/110/3 86/112/3 74/10/3 75/9/3
f 42/69/3 38/78/3 86/112/3 87/110/3
f 99/70/3 42/69/3 87/110/3 111/109/3
f 40/66/3 43/65/3 88/106/3 82/105/3
f 79/102/1 77/101/1 81/75/1 83/72/1
f 109/104/1 79/102/1 83/72/1 112/71/1
f 73/113/5 80/52/5 114/52/5 113/113/5
f 109/104/4 112/71/4 118/71/4 117/104/4
f 160/114/3 99/70/3 111/109/3 172/115/3
f 172/115/3 111/109/3 110/111/3 171/116/3
f 410/117/1 406/103/1 109/104/1 170/118/1
f 161/119/5 100/74/5 107/74/5 168/120/5
f 168/120/1 107/74/1 108/86/1 169/91/1
f 47/18/2 102/28/2 105/28/2 61/18/2
f 167/121/1 106/86/1 105/28/1 166/94/1
f 162/122/3 101/81/3 104/67/3 165/123/3
f 59/85/2 103/84/2 108/86/2 71/85/2
f 164/90/5 103/84/5 106/86/5 167/121/5
f 154/124/3 93/30/3 101/81/3 162/122/3
f 173/125/1 112/71/1 100/74/1 161/119/1
f 165/123/3 104/67/3 99/70/3 160/114/3
f 155/126/5 94/29/5 97/29/5 158/127/5
f 24/25/2 96/57/2 98/57/2 34/25/2
f 158/127/1 97/29/1 98/57/1 159/60/1
f 437/128/1 436/35/1 90/36/1 151/129/1
f 177/130/2 124/33/2 91/34/2 152/131/2
f 409/132/3 407/31/3 92/32/3 153/133/3
f 156/134/3 95/27/3 93/30/3 154/124/3
f 163/93/1 102/28/1 94/29/1 155/126/1
f 426/135/3 425/26/3 95/27/3 156/134/3
f 113/113/1 114/52/1 115/136/1 116/137/1
f 175/118/1 117/104/1 118/71/1 176/125/1
f 173/125/2 84/136/2 115/136/2 176/125/2
f 85/98/8 73/138/8 113/138/8 116/98/8
f 84/136/2 85/137/2 116/137/2 115/136/2
f 170/118/5 109/104/5 117/104/5 175/118/5
f 383/139/8 211/140/8 268/140/8 390/141/8
f 138/142/10 144/143/10 252/143/10 246/142/10
f 195/144/3 193/145/3 262/145/3 266/144/3
f 132/146/8 135/147/8 250/147/8 244/146/8
f 368/148/8 150/149/8 256/149/8 374/148/8
f 134/150/11 130/150/11 231/150/11 237/150/11
f 180/151/1 140/152/1 248/152/1 253/151/1
f 224/5/2 222/6/2 279/6/2 280/5/2
f 143/150/11 137/150/11 245/150/11 251/150/11
f 310/133/5 315/32/5 321/153/5 322/154/5
f 177/130/5 123/40/5 270/40/5 269/130/5
f 360/155/5 316/156/5 306/157/5 314/158/5
f 124/33/5 177/130/5 269/130/5 273/33/5
f 140/152/1 138/142/1 246/142/1 248/152/1
f 20/12/3 6/11/3 307/11/3 308/12/3
f 180/151/3 139/159/3 198/159/3 204/151/3
f 192/160/12 144/143/12 201/143/12 207/160/12
f 139/159/3 135/161/3 196/161/3 198/159/3
f 135/161/1 139/159/1 247/159/1 250/161/1
f 136/150/13 142/150/13 353/150/13 347/150/13
f 153/133/3 92/32/3 315/32/3 310/133/3
f 192/160/3 194/162/3 264/162/3 255/160/3
f 135/147/8 141/163/8 200/163/8 196/147/8
f 194/162/1 192/160/1 207/160/1 209/162/1
f 195/144/1 194/162/1 209/162/1 210/144/1
f 17/164/1 89/165/1 306/165/1 220/164/1
f 2/166/1 17/164/1 220/164/1 219/166/1
f 92/32/3 20/12/3 308/12/3 315/32/3
f 125/167/2 128/168/2 145/169/2 150/170/2
f 367/150/14 120/150/14 222/150/14 370/150/14
f 193/145/3 189/171/3 267/171/3 262/145/3
f 384/150/15 212/150/15 305/150/15 392/150/15
f 122/5/5 124/33/5 273/33/5 272/5/5
f 369/150/16 149/150/16 323/150/16 380/150/16
f 126/150/17 129/150/17 335/150/17 324/150/17
f 1/172/18 216/173/18 365/173/18 311/172/18
f 174/174/1 32/175/1 312/175/1 314/174/1
f 128/168/2 178/176/2 181/177/2 145/169/2
f 89/165/1 174/174/1 314/174/1 306/165/1
f 141/163/8 189/178/8 206/178/8 200/163/8
f 133/150/17 136/150/17 347/150/17 341/150/17
f 189/171/1 193/145/1 208/145/1 206/171/1
f 212/150/15 2/150/15 219/150/15 305/150/15
f 32/179/1 1/180/1 311/180/1 312/179/1
f 365/181/5 313/182/5 312/179/5 311/180/5
f 131/183/2 179/184/2 178/176/2 128/168/2
f 130/150/11 127/150/11 232/150/11 231/150/11
f 408/185/3 146/186/3 317/186/3 414/187/3
f 80/52/5 170/118/5 175/118/5 114/52/5
f 112/71/2 173/125/2 176/125/2 118/71/2
f 114/52/1 175/118/1 176/125/1 115/136/1
f 423/55/3 426/135/3 156/134/3 30/48/3
f 48/89/1 163/93/1 155/126/1 29/61/1
f 30/48/3 156/134/3 154/124/3 28/49/3
f 401/44/3 409/132/3 153/133/3 27/45/3
f 123/40/2 177/130/2 152/131/2 26/41/2
f 435/188/1 437/128/1 151/129/1 25/189/1
f 35/61/1 158/127/1 159/60/1 36/59/1
f 29/61/5 155/126/5 158/127/5 35/61/5
f 56/64/3 165/123/3 160/114/3 43/65/3
f 84/136/1 173/125/1 161/119/1 44/56/1
f 28/49/3 154/124/3 162/122/3 52/82/3
f 60/38/5 164/90/5 167/121/5 66/38/5
f 52/82/3 162/122/3 165/123/3 56/64/3
f 66/38/1 167/121/1 166/94/1 62/89/1
f 69/56/1 168/120/1 169/91/1 72/38/1
f 44/56/5 161/119/5 168/120/5 69/56/5
f 405/51/1 410/117/1 170/118/1 80/52/1
f 88/106/3 172/115/3 171/116/3 76/107/3
f 43/65/3 160/114/3 172/115/3 88/106/3
f 102/28/2 163/93/2 166/94/2 105/28/2
f 103/84/2 164/90/2 169/91/2 108/86/2
f 96/57/2 157/58/2 159/60/2 98/57/2
f 178/176/19 186/176/19 187/184/19 179/184/19
f 181/177/3 145/169/3 184/169/3 188/177/3
f 181/177/20 188/177/20 186/176/20 178/176/20
f 179/184/1 187/184/1 183/183/1 131/183/1
f 150/170/3 185/170/3 184/169/3 145/169/3
f 182/190/2 183/183/2 184/169/2 185/170/2
f 183/183/2 187/184/2 188/177/2 184/169/2
f 144/143/10 192/160/10 255/160/10 252/143/10
f 181/177/21 178/176/21 258/176/21 257/177/21
f 382/150/22 191/150/22 254/150/22 385/150/22
f 137/150/11 134/150/11 237/150/11 245/150/11
f 316/156/5 309/191/5 220/192/5 306/157/5
f 5/46/3 27/45/3 218/45/3 217/46/3
f 205/193/2 203/194/2 199/152/2 204/151/2
f 200/195/2 202/196/2 198/159/2 196/161/2
f 203/194/2 201/143/2 197/142/2 199/152/2
f 209/162/2 207/160/2 201/143/2 203/194/2
f 206/171/2 208/145/2 202/196/2 200/195/2
f 210/144/2 209/162/2 203/194/2 205/193/2
f 208/145/2 210/144/2 205/193/2 202/196/2
f 202/196/2 205/193/2 204/151/2 198/159/2
f 138/142/3 140/152/3 199/152/3 197/142/3
f 144/143/12 138/142/12 197/142/12 201/143/12
f 140/152/3 180/151/3 204/151/3 199/152/3
f 193/145/1 195/144/1 210/144/1 208/145/1
f 309/191/5 305/197/5 219/198/5 220/192/5
f 399/199/8 411/200/8 216/173/8 1/172/8
f 261/201/23 268/202/23 3/203/23 25/189/23
f 265/204/23 261/201/23 25/189/23 151/129/23
f 85/98/8 214/205/8 213/206/8 73/138/8
f 263/207/23 265/204/23 151/129/23 90/36/23
f 260/208/23 263/207/23 90/36/23 18/4/23
f 149/150/16 126/150/16 324/150/16 323/150/16
f 27/45/3 153/133/3 310/133/3 218/45/3
f 142/150/15 190/150/15 361/150/15 353/150/15
f 129/150/17 133/150/17 341/150/17 335/150/17
f 375/209/2 373/210/2 228/33/2 229/130/2
f 374/211/2 372/212/2 226/40/2 230/39/2
f 373/210/2 371/213/2 224/5/2 228/33/2
f 371/213/2 370/214/2 222/6/2 224/5/2
f 233/215/2 231/216/2 232/217/2 234/218/2
f 235/219/2 233/215/2 234/218/2 236/220/2
f 242/184/2 235/219/2 236/220/2 258/176/2
f 249/221/2 241/222/2 235/219/2 242/184/2
f 244/223/2 239/224/2 240/183/2 243/190/2
f 241/222/2 238/225/2 233/215/2 235/219/2
f 238/225/2 237/226/2 231/216/2 233/215/2
f 246/142/2 245/227/2 237/226/2 238/225/2
f 248/152/2 246/142/2 238/225/2 241/222/2
f 250/161/2 247/159/2 239/224/2 244/223/2
f 253/151/2 248/152/2 241/222/2 249/221/2
f 252/143/2 251/228/2 245/227/2 246/142/2
f 255/160/2 254/229/2 251/228/2 252/143/2
f 236/220/2 234/218/2 223/230/2 227/231/2
f 258/176/2 236/220/2 227/231/2 257/177/2
f 234/218/2 232/217/2 221/232/2 223/230/2
f 247/159/2 253/151/2 249/221/2 239/224/2
f 239/224/2 249/221/2 242/184/2 240/183/2
f 372/212/2 375/209/2 229/130/2 226/40/2
f 387/233/2 389/234/2 266/144/2 262/145/2
f 389/234/2 388/235/2 264/162/2 266/144/2
f 390/236/2 387/233/2 262/145/2 267/171/2
f 388/235/2 386/237/2 255/160/2 264/162/2
f 386/237/2 385/238/2 254/229/2 255/160/2
f 194/162/3 195/144/3 266/144/3 264/162/3
f 178/176/24 179/184/24 242/184/24 258/176/24
f 150/170/1 145/169/1 225/169/1 256/170/1
f 127/150/14 147/150/14 221/150/14 232/150/14
f 139/159/1 180/151/1 253/151/1 247/159/1
f 145/169/1 181/177/1 257/177/1 225/169/1
f 259/239/23 260/208/23 18/4/23 4/3/23
f 179/184/3 131/183/3 240/183/3 242/184/3
f 191/150/22 143/150/22 251/150/22 254/150/22
f 228/33/2 224/5/2 280/5/2 276/33/2
f 269/130/3 270/40/3 277/40/3 275/130/3
f 272/5/3 273/33/3 276/33/3 280/5/3
f 270/40/3 271/39/3 278/39/3 277/40/3
f 274/6/3 272/5/3 280/5/3 279/6/3
f 273/33/3 269/130/3 275/130/3 276/33/3
f 229/130/2 228/33/2 276/33/2 275/130/2
f 226/40/2 229/130/2 275/130/2 277/40/2
f 120/6/5 122/5/5 272/5/5 274/6/5
f 230/39/2 226/40/2 277/40/2 278/39/2
f 123/40/5 119/39/5 271/39/5 270/40/5
f 119/240/8 230/240/8 278/240/8 271/240/8
f 222/150/4 120/150/4 274/150/4 279/150/4
f 446/241/1 438/188/1 283/189/1 284/203/1
f 296/92/1 290/89/1 287/61/1 286/242/1
f 286/242/1 287/61/1 288/59/1 285/243/1
f 303/137/1 291/136/1 292/56/1 293/244/1
f 293/244/5 292/56/5 300/56/5 299/244/5
f 299/244/1 300/56/1 301/38/1 298/37/1
f 412/245/1 413/53/1 302/52/1 281/113/1
f 298/37/5 301/38/5 66/38/5 64/37/5
f 1/180/5 32/179/5 289/179/5 282/180/5
f 9/96/8 49/87/8 296/87/8 286/96/8
f 29/61/9 31/59/9 288/59/9 287/61/9
f 419/246/8 15/95/8 285/95/8 428/246/8
f 399/199/8 1/172/8 282/172/8 412/199/8
f 435/188/9 25/189/9 283/189/9 438/188/9
f 85/137/5 84/136/5 291/136/5 303/137/5
f 72/38/2 70/37/2 298/37/2 301/38/2
f 49/92/5 48/89/5 290/89/5 296/92/5
f 84/136/25 44/56/25 292/56/25 291/136/25
f 80/52/2 73/113/2 281/113/2 302/52/2
f 70/62/8 67/97/8 299/97/8 298/62/8
f 44/56/5 69/56/5 300/56/5 292/56/5
f 25/189/2 3/203/2 284/203/2 283/189/2
f 217/46/5 218/45/5 320/247/5 304/248/5
f 315/32/5 308/12/5 319/249/5 321/153/5
f 308/12/5 307/11/5 318/250/5 319/249/5
f 359/251/5 330/252/5 331/253/5 334/254/5
f 317/255/5 327/256/5 328/257/5 333/258/5
f 330/252/5 325/259/5 326/260/5 331/253/5
f 325/259/5 323/261/5 324/262/5 326/260/5
f 334/254/5 331/253/5 338/263/5 340/264/5
f 333/258/5 328/257/5 337/265/5 332/266/5
f 331/253/5 326/260/5 336/267/5 338/263/5
f 326/260/5 324/262/5 335/268/5 336/267/5
f 340/264/5 338/263/5 344/269/5 346/270/5
f 332/266/5 337/265/5 343/271/5 339/272/5
f 338/263/5 336/267/5 342/273/5 344/269/5
f 336/267/5 335/268/5 341/274/5 342/273/5
f 346/270/5 344/269/5 350/275/5 352/276/5
f 339/272/5 343/271/5 349/277/5 345/278/5
f 344/269/5 342/273/5 348/279/5 350/275/5
f 342/273/5 341/274/5 347/280/5 348/279/5
f 352/276/5 350/275/5 356/281/5 358/282/5
f 345/278/5 349/277/5 355/283/5 351/284/5
f 350/275/5 348/279/5 354/285/5 356/281/5
f 348/279/5 347/280/5 353/286/5 354/285/5
f 377/287/5 379/288/5 325/259/5 330/252/5
f 381/289/5 377/287/5 330/252/5 359/251/5
f 376/290/5 378/291/5 327/256/5 317/255/5
f 379/288/5 380/292/5 323/261/5 325/259/5
f 378/291/5 381/289/5 359/251/5 327/256/5
f 349/277/5 352/276/5 358/282/5 355/283/5
f 343/271/5 346/270/5 352/276/5 349/277/5
f 337/265/5 340/264/5 346/270/5 343/271/5
f 328/257/5 334/254/5 340/264/5 337/265/5
f 327/256/5 359/251/5 334/254/5 328/257/5
f 218/45/5 310/133/5 322/154/5 320/247/5
f 313/182/5 360/155/5 314/158/5 312/179/5
f 355/283/5 358/282/5 366/293/5 363/294/5
f 358/282/5 356/281/5 364/295/5 366/293/5
f 351/284/5 355/283/5 363/294/5 357/296/5
f 356/281/5 354/285/5 362/297/5 364/295/5
f 354/285/5 353/286/5 361/298/5 362/297/5
f 394/299/5 396/300/5 360/155/5 313/182/5
f 396/300/5 395/301/5 316/156/5 360/155/5
f 391/302/5 394/299/5 313/182/5 365/181/5
f 395/301/5 393/303/5 309/191/5 316/156/5
f 393/303/5 392/304/5 305/197/5 309/191/5
f 320/247/5 322/154/5 381/289/5 378/291/5
f 319/249/5 318/250/5 380/292/5 379/288/5
f 304/248/5 320/247/5 378/291/5 376/290/5
f 322/154/5 321/153/5 377/287/5 381/289/5
f 321/153/5 319/249/5 379/288/5 377/287/5
f 225/169/2 257/177/2 375/209/2 372/212/2
f 223/230/2 221/232/2 370/214/2 371/213/2
f 227/231/2 223/230/2 371/213/2 373/210/2
f 256/170/2 225/169/2 372/212/2 374/211/2
f 257/177/2 227/231/2 373/210/2 375/209/2
f 121/150/16 369/150/16 380/150/16 318/150/16
f 147/150/14 367/150/14 370/150/14 221/150/14
f 119/240/8 368/148/8 374/148/8 230/240/8
f 362/297/5 361/298/5 392/304/5 393/303/5
f 364/295/5 362/297/5 393/303/5 395/301/5
f 357/296/5 363/294/5 394/299/5 391/302/5
f 366/293/5 364/295/5 395/301/5 396/300/5
f 363/294/5 366/293/5 396/300/5 394/299/5
f 260/208/2 259/239/2 385/238/2 386/237/2
f 263/207/2 260/208/2 386/237/2 388/235/2
f 268/202/2 261/201/2 387/233/2 390/236/2
f 265/204/2 263/207/2 388/235/2 389/234/2
f 261/201/2 265/204/2 389/234/2 387/233/2
f 215/150/22 382/150/22 385/150/22 259/150/22
f 190/150/26 384/150/26 392/150/26 361/150/26
f 189/178/8 383/139/8 390/141/8 267/178/8
f 397/305/2 398/306/2 447/306/2 448/305/2
f 73/138/8 399/199/8 412/199/8 281/138/8
f 282/307/1 289/175/1 413/53/1 412/245/1
f 73/138/8 213/206/8 411/200/8 399/199/8
f 32/175/1 174/174/1 410/117/1 405/51/1
f 76/107/3 171/116/3 409/132/3 401/44/3
f 148/308/3 408/185/3 414/187/3 329/308/3
f 171/116/3 110/111/3 407/31/3 409/132/3
f 174/174/1 89/165/1 406/103/1 410/117/1
f 89/165/1 17/164/1 404/99/1 406/103/1
f 17/164/1 2/166/1 402/100/1 404/99/1
f 32/175/6 405/51/6 413/53/6 289/175/6
f 78/108/3 76/107/3 401/44/3 403/43/3
f 110/111/3 75/9/3 400/13/3 407/31/3
f 440/309/27 431/310/27 451/310/27 454/309/27
f 31/59/9 422/311/9 429/311/9 288/59/9
f 441/312/8 419/246/8 428/246/8 446/312/8
f 285/243/1 288/59/1 429/311/1 428/313/1
f 31/59/1 157/58/1 427/314/1 422/311/1
f 443/315/3 445/316/3 426/135/3 423/55/3
f 445/316/3 444/317/3 425/26/3 426/135/3
f 157/58/1 96/57/1 424/318/1 427/314/1
f 433/319/3 443/315/3 423/55/3 418/54/3
f 96/57/1 24/25/1 421/320/1 424/318/1
f 444/317/3 442/23/3 420/22/3 425/26/3
f 24/25/1 13/24/1 417/321/1 421/320/1
f 91/34/3 19/8/3 442/23/3 444/317/3
f 7/42/3 26/41/3 443/315/3 433/319/3
f 152/131/3 91/34/3 444/317/3 445/316/3
f 26/41/3 152/131/3 445/316/3 443/315/3
f 3/322/8 441/312/8 446/312/8 284/322/8
f 422/311/9 435/188/9 438/188/9 429/311/9
f 428/313/1 429/311/1 438/188/1 446/241/1
f 422/311/1 427/314/1 437/128/1 435/188/1
f 427/314/1 424/318/1 436/35/1 437/128/1
f 424/318/1 421/320/1 434/1/1 436/35/1
f 421/320/1 417/321/1 432/2/1 434/1/1
f 451/310/28 447/306/28 455/306/28 456/310/28
f 448/305/29 447/306/29 451/310/29 452/54/29
f 415/323/30 397/305/30 448/305/30 449/323/30
f 431/310/5 430/54/5 452/54/5 451/310/5
f 439/324/2 440/309/2 454/309/2 453/324/2
f 430/54/30 439/324/30 453/324/30 452/54/30
f 398/306/27 416/325/27 450/325/27 447/306/27
f 416/325/5 415/323/5 449/323/5 450/325/5
f 470/306/28 469/306/28 457/306/28 458/306/28
f 471/310/28 472/310/28 460/310/28 459/310/28
f 448/305/31 452/54/31 463/54/31 461/305/31
f 452/54/31 453/324/31 464/324/31 463/54/31
f 449/323/31 448/305/31 461/305/31 462/323/31
f 449/323/31 462/323/31 466/323/31 465/323/31
f 455/306/28 447/306/28 469/306/28 470/306/28
f 464/324/31 453/324/31 467/324/31 468/324/31
f 451/310/28 456/310/28 472/310/28 471/310/28
f 453/324/29 471/310/29 459/310/29 467/324/29
f 469/306/29 449/323/29 465/323/29 457/306/29
f 473/307/1 474/166/1 476/3/1 475/203/1
f 491/326/2 489/327/2 480/7/2 479/42/2
f 479/42/3 480/7/3 478/11/3 477/46/3
f 496/328/5 494/329/5 474/198/5 473/180/5
f 491/330/8 479/42/8 477/46/8 490/331/8
f 495/332/4 476/333/4 474/334/4 494/335/4
f 493/336/2 495/337/2 500/338/2 499/339/2 481/340/2
f 493/341/8 481/342/8 482/343/8 496/344/8
f 484/345/5 486/346/5 483/347/5 482/348/5
f 504/349/32 507/350/32 485/351/32 487/351/32 514/352/32 516/353/32 515/354/32
f 490/355/5 492/356/5 486/346/5 484/345/5
f 481/342/8 485/357/8 484/358/8 482/343/8
f 489/359/4 506/360/4 505/361/4 486/362/4 492/363/4
f 498/364/33 504/365/33 515/365/33 511/364/33
f 488/340/34 512/366/34 514/367/34 487/351/34
f 485/351/2 507/350/2 506/368/2 489/327/2 491/326/2
f 485/357/8 481/342/8 488/342/8 487/357/8
f 480/7/4 489/359/4 492/363/4 478/11/4
f 477/46/5 478/11/5 492/356/5 490/355/5
f 485/357/8 491/330/8 490/331/8 484/358/8
f 475/203/2 476/3/2 495/337/2 493/336/2
f 475/322/8 493/341/8 496/344/8 473/172/8
f 505/361/4 497/369/4 483/370/4 486/362/4
f 482/348/5 483/347/5 494/329/5 496/328/5
f 497/371/35 501/372/35 502/373/35 503/374/35 498/375/35 499/339/35 500/338/35
f 504/349/36 508/376/36 509/377/36 510/378/36 505/349/36 506/349/36 507/350/36
f 497/369/37 505/361/37 510/379/37 501/380/37
f 501/380/38 510/379/38 509/381/38 502/382/38
f 502/382/39 509/381/39 508/383/39 503/384/39
f 503/384/40 508/383/40 504/365/40 498/364/40
f 497/369/4 500/385/4 495/332/4 494/335/4 483/370/4
f 511/364/41 515/365/41 516/365/41 513/364/41
f 513/371/42 516/349/42 514/367/42 512/366/42
f 481/340/43 499/339/43 498/371/43 511/371/43 513/386/43 512/387/43 488/340/43
l 211 3
