# Blender 4.3.2
# www.blender.org
mtllib ColliderCasa2.mtl
o Cube
v -2.572425 0.112807 3.627801
v -2.572425 3.513933 3.627801
v -2.572425 3.513933 -1.247718
v 2.643569 0.112807 3.627801
v 2.643569 3.513933 3.627801
v 2.643569 0.239208 -1.247718
v 2.643569 3.513933 -1.247718
v -3.526453 -0.024299 -1.247718
v -3.526453 -0.024299 3.627801
v 2.643569 -0.024299 -1.247718
v 2.643569 -0.024299 3.627801
v 2.474441 0.239208 -3.174187
v -2.572425 0.239208 -3.174187
v 2.474441 -0.024299 -3.174187
v -3.526453 -0.024299 -3.174187
v -2.572425 0.197074 0.377455
v -2.572425 0.154940 2.002628
v -2.572425 3.513933 2.002628
v -2.572425 3.513933 0.377455
v 2.643569 0.154940 2.079192
v 2.643569 0.197074 0.115066
v 2.643569 3.513933 0.377455
v 2.643569 3.513933 2.002628
v -3.526453 -0.024299 0.377455
v -3.526453 -0.024299 2.002628
v 2.643569 -0.024299 2.079192
v 2.643569 -0.024299 0.115066
v -2.572425 0.197074 0.100800
v -2.572425 0.154940 2.100139
v -2.572425 3.513933 2.100139
v -2.572425 3.513933 0.100800
v 2.474441 0.154940 2.100139
v 2.474441 0.197074 0.100800
v 2.474441 3.513933 0.100800
v 2.474441 3.513933 2.100139
v -2.572425 -0.024299 0.100800
v -2.572425 -0.024299 2.100139
v 2.474441 -0.024299 2.100139
v 2.474441 -0.024299 0.100800
v -2.572425 3.050901 3.627801
v -2.572425 3.068110 -1.247718
v 2.643569 3.068110 -1.247718
v 2.643569 3.050901 3.627801
v 2.643569 3.062373 0.115066
v 2.643569 3.056637 2.079192
v -2.572425 3.056637 2.002628
v -2.572425 3.062373 0.377455
v 3.486173 0.154940 2.079192
v 3.486173 0.197074 0.115066
v 3.486173 -0.024299 2.079192
v 3.486173 -0.024299 0.115066
v 3.486173 3.062373 0.115066
v 3.486173 3.056637 2.079192
v 2.189311 0.239208 -1.247718
v 2.189311 3.513933 -1.247718
v 2.189311 0.112807 3.627801
v 2.189311 3.513933 3.627801
v 2.189311 -0.024299 -1.247718
v 2.189311 -0.024299 3.627801
v -2.572425 2.942630 -3.174187
v 2.034912 -0.024299 -3.174187
v 2.189311 -0.024299 0.137917
v 2.189311 -0.024299 2.072524
v 2.189311 3.513933 0.377455
v 2.189311 3.513933 2.002628
v 2.189311 3.050901 3.627801
v 2.189311 3.068110 -1.247718
v -3.526453 -0.024299 -2.812104
v 2.506228 0.239208 -2.812104
v 2.506228 -0.024299 -2.812104
v 2.063931 -0.024299 -2.812104
v 2.065653 0.239208 -2.812104
v 2.036623 0.239208 -3.174187
v -2.572425 2.942630 -2.812104
v 2.506228 2.942630 -2.812104
v 2.474441 2.942630 -3.174187
v 2.065653 2.942630 -2.812104
v 2.036623 2.942630 -3.174187
v -2.572425 1.460409 -1.247718
v 2.643569 1.460409 -1.247718
v 2.643569 1.381145 3.627801
v 2.643569 1.433988 0.115066
v 2.643569 1.407567 2.079192
v -2.572425 1.407567 2.002628
v -2.572425 1.433988 0.377455
v -2.572425 1.381145 3.627801
v 3.486173 1.433988 0.115066
v 3.486173 1.407567 2.079192
v 2.189311 1.460409 -1.247718
v 2.189311 1.381145 3.627801
v 2.065653 1.406241 -2.812104
v -2.572425 1.406241 -2.812104
v 2.506228 1.406241 -2.812104
v 2.036623 1.406241 -3.174187
v 2.474441 1.406241 -3.174187
v -2.572425 1.406241 -3.174187
v -2.572425 3.032716 3.627801
v 2.065653 2.925897 -2.812104
v 2.506228 2.925897 -2.812104
v 2.036623 2.925897 -3.174187
v -2.572425 3.050600 -1.247718
v 2.643569 3.050600 -1.247718
v 2.643569 3.032716 3.627801
v 2.643569 3.044638 0.115066
v 2.643569 3.038677 2.079192
v -2.572425 3.038677 2.002628
v -2.572425 3.044639 0.377455
v 3.486173 3.044638 0.115066
v 3.486173 3.038677 2.079192
v 2.189311 3.050600 -1.247718
v 2.189311 3.032716 3.627801
v -2.572425 2.925897 -2.812104
v 2.474441 2.925897 -3.174187
v -2.572425 2.925897 -3.174187
v -1.635081 0.239208 -1.247718
v -1.635081 3.513933 3.627801
v -1.635081 -0.024299 -1.247718
v -1.665474 -0.024299 -3.174187
v -1.635081 -0.024299 0.330302
v -1.635081 -0.024299 2.016387
v -1.635081 3.050901 3.627801
v -1.635081 3.513933 -1.247718
v -1.635081 0.112807 3.627801
v -1.635081 -0.024299 3.627801
v -1.635081 3.513933 0.377455
v -1.635081 3.513933 2.002628
v -1.635081 3.068110 -1.247718
v -1.659762 -0.024299 -2.812104
v -1.659423 0.239208 -2.812104
v -1.665138 0.239208 -3.174187
v -1.659423 2.942630 -2.812104
v -1.665138 2.942630 -3.174187
v -1.665138 1.406241 -3.174187
v -1.659423 1.406241 -2.812104
v -1.635081 1.460409 -1.247718
v -1.635081 1.381145 3.627801
v -1.665138 2.925897 -3.174187
v -1.659423 2.925897 -2.812104
v -1.635081 3.050600 -1.247718
v -1.635081 3.032716 3.627801
v -3.601615 -0.079569 1.392914
v -3.601615 3.511855 1.392914
v -3.601615 -0.079569 0.990465
v -3.601615 3.511855 0.990465
v -3.199166 -0.079569 1.392914
v -3.199166 3.511855 1.392914
v -3.199166 -0.079569 0.990465
v -3.199166 3.511855 0.990465
v -2.256386 0.239208 -1.247718
v -2.864856 0.158437 -1.247718
v -2.572425 0.231298 -0.942620
v -2.572425 0.452189 -1.247718
v -2.399589 0.233059 -1.247718
v -2.565511 0.215550 -1.247718
v -2.728891 0.189346 -1.247718
v -2.864856 0.158437 -2.812104
v -2.256386 0.239208 -2.812104
v -2.572425 0.452189 -2.812104
v -2.572425 0.239208 -3.117413
v -2.728891 0.189346 -2.812104
v -2.565511 0.215550 -2.812104
v -2.399589 0.233059 -2.812104
vn -1.0000 -0.0000 -0.0000
vn 1.0000 -0.0000 -0.0000
vn -0.0000 -0.0000 1.0000
vn -0.0000 1.0000 -0.0000
vn -0.0000 -1.0000 -0.0000
vn -0.0000 -0.0000 -1.0000
vn 0.9962 -0.0000 -0.0875
vn -0.1635 0.9865 0.0128
vn -0.2055 0.9786 0.0127
vn -0.0000 1.0000 0.0029
vn -0.0000 0.9968 -0.0800
vn -0.9969 -0.0000 0.0788
vn -0.2662 0.9639 -0.0000
vn -0.0000 0.9989 -0.0462
vn -0.9968 -0.0000 0.0799
vn -0.2457 0.9693 0.0122
vn 0.9999 -0.0000 -0.0158
vn -0.6054 0.6026 -0.5199
vn -0.6006 0.5979 0.5309
vn -0.0429 0.9991 -0.0000
vn -0.1049 0.9945 -0.0000
vn -0.1584 0.9874 -0.0000
vn -0.2217 0.9751 -0.0000
vt 0.590965 0.166667
vt 0.625000 0.166667
vt 0.625000 0.250000
vt 0.590965 0.250000
vt 0.590965 0.666667
vt 0.625000 0.666667
vt 0.625000 0.750000
vt 0.590965 0.750000
vt 0.590965 0.955074
vt 0.625000 0.955074
vt 0.625000 1.000000
vt 0.590965 1.000000
vt 0.375000 0.955074
vt 0.375000 1.000000
vt 0.375000 0.955074
vt 0.830074 0.666667
vt 0.875000 0.666667
vt 0.875000 0.750000
vt 0.830074 0.750000
vt 0.353228 0.666667
vt 0.375000 0.666667
vt 0.375000 0.750000
vt 0.353228 0.750000
vt 0.375000 0.166667
vt 0.468229 0.166667
vt 0.468229 0.250000
vt 0.391259 0.250000
vt 0.375000 0.234356
vt 0.375000 0.478228
vt 0.375000 0.500000
vt 0.375000 0.478228
vt 0.169926 0.500000
vt 0.125000 0.500000
vt 0.169926 0.500000
vt 0.375000 0.583333
vt 0.375000 0.000000
vt 0.375000 0.083333
vt 0.353228 0.500000
vt 0.353228 0.583333
vt 0.830074 0.500000
vt 0.875000 0.500000
vt 0.875000 0.583333
vt 0.830074 0.583333
vt 0.590965 0.500000
vt 0.625000 0.500000
vt 0.625000 0.583333
vt 0.590965 0.583333
vt 0.590965 0.000000
vt 0.625000 0.000000
vt 0.625000 0.083333
vt 0.590965 0.083333
vt 0.589628 0.083333
vt 0.589628 0.166667
vt 0.589628 0.000000
vt 0.589628 0.583333
vt 0.589628 0.583333
vt 0.589628 0.500000
vt 0.589628 0.955074
vt 0.589628 1.000000
vt 0.589628 0.666667
vt 0.589628 0.750000
vt 0.589628 0.250000
vt 0.468229 0.666667
vt 0.589628 0.294926
vt 0.590965 0.294926
vt 0.590965 0.478228
vt 0.589628 0.478228
vt 0.590965 0.771772
vt 0.589628 0.771772
vt 0.646772 0.583333
vt 0.646772 0.666667
vt 0.646772 0.500000
vt 0.169926 0.583333
vt 0.169926 0.666667
vt 0.353228 0.500000
vt 0.375000 0.294926
vt 0.169926 0.750000
vt 0.646772 0.750000
vt 0.375000 0.771772
vt 0.625000 0.771772
vt 0.625000 0.294926
vt 0.625000 0.478228
vt 0.375000 0.250000
vt 0.375000 0.250000
vt 0.375000 0.500000
vt 0.375000 0.294943
vt 0.375000 0.478312
vt 0.375000 0.294943
vt 0.375000 0.294935
vt 0.375000 0.294935
vt 0.375000 0.500000
vt 0.375000 0.294926
vt 0.375000 0.265557
vt 0.375000 0.478228
vt 0.468229 0.750000
vt 0.468229 0.771772
vt 0.468229 0.294926
vt 0.468229 0.478228
vt 0.468229 0.583333
vt 0.468229 0.955074
vt 0.468229 1.000000
vt 0.468229 0.500000
vt 0.468229 0.583333
vt 0.468229 0.000000
vt 0.468229 0.083333
vt 0.375000 0.265150
vt 0.125000 0.666667
vt 0.125000 0.750000
vt 0.125000 0.583333
vt 0.375000 0.258285
vt 0.375000 0.250331
vt 0.375000 0.242410
vt 0.375000 0.235806
vt 0.375000 0.258508
vt 0.391259 0.250000
s 0
f 47/1/1 19/2/1 3/3/1 41/4/1
f 45/5/2 23/6/2 5/7/2 43/8/2
f 121/9/3 116/10/3 2/11/3 40/12/3
f 123/13/3 1/14/3 9/14/3 124/15/3
f 126/16/4 18/17/4 2/18/4 116/19/4
f 63/20/5 26/21/5 11/22/5 59/23/5
f 16/24/1 85/25/1 79/26/1 152/27/1 151/28/1
f 20/21/2 4/22/2 11/22/2 26/21/2
f 73/29/6 12/30/6 14/30/6 61/31/6
f 128/32/5 68/33/5 15/33/5 118/34/5
f 69/30/7 70/30/7 14/30/7 12/30/7
f 6/30/2 21/35/2 27/35/2 10/30/2
f 27/35/6 21/35/6 49/35/6 51/35/6
f 1/36/8 17/37/8 25/37/8 9/36/8
f 17/37/9 16/24/9 24/24/9 25/37/9
f 58/38/5 10/30/5 27/35/5 62/39/5
f 62/39/5 27/35/5 26/21/5 63/20/5
f 122/40/4 3/41/4 19/42/4 125/43/4
f 125/43/4 19/42/4 18/17/4 126/16/4
f 42/44/2 7/45/2 22/46/2 44/47/2
f 44/47/2 22/46/2 23/6/2 45/5/2
f 40/48/1 2/49/1 18/50/1 46/51/1
f 46/51/1 18/50/1 19/2/1 47/1/1
f 106/52/1 46/51/1 47/1/1 107/53/1
f 97/54/1 40/48/1 46/51/1 106/52/1
f 104/55/6 44/47/6 52/47/6 108/56/6
f 102/57/2 42/44/2 44/47/2 104/55/2
f 140/58/3 121/9/3 40/12/3 97/59/3
f 105/60/2 45/5/2 43/8/2 103/61/2
f 107/53/1 47/1/1 41/4/1 101/62/1
f 49/35/2 48/21/2 50/21/2 51/35/2
f 108/56/2 52/47/2 53/5/2 109/60/2
f 83/63/3 20/21/3 48/21/3 88/63/3
f 44/47/10 45/5/10 53/5/10 52/47/10
f 20/21/3 26/21/3 50/21/3 48/21/3
f 26/21/5 27/35/5 51/35/5 50/21/5
f 139/64/6 127/65/6 67/66/6 110/67/6
f 103/61/3 43/8/3 66/68/3 111/69/3
f 22/46/4 64/70/4 65/71/4 23/6/4
f 7/45/4 55/72/4 64/70/4 22/46/4
f 119/73/5 62/39/5 63/20/5 120/74/5
f 117/34/5 58/38/5 62/39/5 119/73/5
f 70/30/5 71/75/5 61/75/5 14/30/5
f 10/30/5 58/38/5 71/75/5 70/30/5
f 130/76/6 73/29/6 61/31/6 118/76/6
f 120/74/5 63/20/5 59/23/5 124/77/5
f 23/6/4 65/71/4 57/78/4 5/7/4
f 4/22/3 56/79/3 59/79/3 11/22/3
f 43/8/3 5/7/3 57/80/3 66/68/3
f 127/65/6 122/81/6 55/82/6 67/66/6
f 13/83/1 159/83/1 158/83/1 92/83/1 96/84/1
f 117/34/5 8/33/5 68/33/5 128/32/5
f 6/30/7 10/30/7 70/30/7 69/30/7
f 102/30/7 99/85/7 75/30/7 42/30/7
f 138/86/3 98/87/3 77/87/3 131/86/3
f 129/88/4 115/89/4 54/87/4 72/87/4
f 55/82/6 7/45/6 42/44/6 67/66/6
f 78/87/4 77/87/4 75/30/4 76/30/4
f 77/87/11 67/87/11 42/30/11 75/30/11
f 132/90/4 131/86/4 77/87/4 78/87/4
f 113/91/6 100/29/6 78/29/6 76/30/6
f 98/87/12 110/87/12 67/87/12 77/87/12
f 99/85/7 113/91/7 76/30/7 75/30/7
f 114/83/1 112/83/1 74/83/1 60/83/1
f 137/76/6 114/83/6 60/83/6 132/90/6
f 130/76/6 13/83/6 96/84/6 133/92/6
f 158/83/3 157/93/3 129/88/3 134/86/3 92/83/3
f 69/30/7 12/30/7 95/30/7 93/30/7
f 72/87/12 54/87/12 89/87/12 91/87/12
f 12/30/6 73/29/6 94/94/6 95/30/6
f 129/88/3 72/87/3 91/87/3 134/86/3
f 6/30/7 69/30/7 93/30/7 80/30/7
f 4/22/3 81/95/3 90/96/3 56/79/3
f 115/89/6 135/97/6 89/98/6 54/94/6
f 105/60/3 83/63/3 88/63/3 109/60/3
f 49/35/2 87/99/2 88/63/2 48/21/2
f 8/83/13 150/83/13 156/83/13 68/83/13
f 20/21/2 83/63/2 81/95/2 4/22/2
f 123/13/3 136/100/3 86/101/3 1/14/3
f 6/30/2 80/102/2 82/103/2 21/35/2
f 21/35/6 82/103/6 87/99/6 49/35/6
f 1/36/1 86/104/1 84/105/1 17/37/1
f 17/37/1 84/105/1 85/25/1 16/24/1
f 45/5/3 105/60/3 109/60/3 53/5/3
f 133/92/6 96/84/6 114/83/6 137/76/6
f 96/84/1 92/83/1 112/83/1 114/83/1
f 93/30/7 95/30/7 113/91/7 99/85/7
f 91/87/12 89/87/12 110/87/12 98/87/12
f 95/30/6 94/94/6 100/29/6 113/91/6
f 131/86/14 77/87/14 100/29/14 137/76/14
f 80/30/7 93/30/7 99/85/7 102/30/7
f 81/95/3 103/61/3 111/69/3 90/96/3
f 135/97/6 139/64/6 110/67/6 89/98/6
f 87/99/2 108/56/2 109/60/2 88/63/2
f 85/25/1 107/53/1 101/62/1 79/26/1
f 83/63/2 105/60/2 103/61/2 81/95/2
f 136/100/3 140/58/3 97/59/3 86/101/3
f 80/102/2 102/57/2 104/55/2 82/103/2
f 82/103/6 104/55/6 108/56/6 87/99/6
f 86/104/1 97/54/1 106/52/1 84/105/1
f 84/105/1 106/52/1 107/53/1 85/25/1
f 90/96/3 111/69/3 140/58/3 136/100/3
f 79/26/6 101/62/6 139/64/6 135/97/6
f 92/83/3 134/86/3 138/86/3 112/83/3
f 98/87/15 100/29/15 94/94/15 91/87/15
f 56/79/3 90/96/3 136/100/3 123/13/3
f 157/93/4 149/106/4 115/89/4 129/88/4
f 68/83/13 156/83/13 159/83/13 13/83/13 15/83/13
f 73/29/6 130/76/6 133/92/6 94/94/6
f 100/29/6 137/76/6 132/90/6 78/29/6
f 60/83/4 74/83/4 131/86/4 132/90/4
f 16/24/16 151/28/16 150/83/16 8/83/16 24/24/16
f 112/83/3 138/86/3 131/86/3 74/83/3
f 58/38/5 117/34/5 128/32/5 71/75/5
f 41/4/6 3/3/6 122/81/6 127/65/6
f 25/107/5 120/74/5 124/77/5 9/108/5
f 13/83/6 130/76/6 118/76/6 15/83/6
f 8/33/5 117/34/5 119/73/5 24/109/5
f 24/109/5 119/73/5 120/74/5 25/107/5
f 101/62/6 41/4/6 127/65/6 139/64/6
f 111/69/3 66/68/3 121/9/3 140/58/3
f 64/70/4 125/43/4 126/16/4 65/71/4
f 55/72/4 122/40/4 125/43/4 64/70/4
f 71/75/5 128/32/5 118/34/5 61/75/5
f 65/71/4 126/16/4 116/19/4 57/78/4
f 56/79/3 123/13/3 124/15/3 59/79/3
f 66/68/3 57/80/3 116/10/3 121/9/3
f 133/92/4 134/86/4 91/87/4 94/94/4
f 138/86/17 134/86/17 133/92/17 137/76/17
f 141/36/1 142/49/1 144/3/1 143/83/1
f 143/83/6 144/3/6 148/45/6 147/30/6
f 147/30/2 148/45/2 146/7/2 145/22/2
f 145/22/3 146/7/3 142/11/3 141/14/3
f 143/33/5 147/30/5 145/22/5 141/108/5
f 148/45/4 144/41/4 142/18/4 146/7/4
f 149/106/18 153/110/18 154/111/18 155/112/18 150/113/18 151/28/18 152/27/18
f 156/83/19 160/83/19 161/83/19 162/83/19 157/83/19 158/83/19 159/83/19
f 149/106/20 157/93/20 162/114/20 153/110/20
f 153/110/21 162/114/21 161/83/21 154/83/21
f 154/83/22 161/83/22 160/83/22 155/83/22
f 155/83/23 160/83/23 156/83/23 150/83/23
f 149/106/6 152/115/6 79/26/6 135/97/6 115/89/6
l 33 39
l 32 38
l 29 37
l 28 36
l 39 36
l 38 37
l 31 34
l 30 35
l 34 33
l 35 32
l 30 29
l 31 28
